<?xml version="1.0" standalone="no"?>
<!DOCTYPE svg PUBLIC "-//W3C//DTD SVG 20010904//EN"
 "http://www.w3.org/TR/2001/REC-SVG-20010904/DTD/svg10.dtd">
<svg version="1.0" xmlns="http://www.w3.org/2000/svg"
 width="329.000000pt" height="329.000000pt" viewBox="0 0 329.000000 329.000000"
 preserveAspectRatio="xMidYMid meet">
<metadata>
Created by potrace 1.11, written by Peter Selinger 2001-2013
</metadata>
<g transform="translate(0.000000,329.000000) scale(0.100000,-0.100000)"
fill="#000000" stroke="none">
<path d="M590 2372 l0 -39 51 -6 c66 -8 96 -28 109 -74 8 -27 10 -249 8 -733
l-3 -695 -23 -57 c-31 -76 -69 -108 -131 -108 -60 0 -81 16 -138 102 -52 79
-91 103 -148 92 -53 -10 -85 -48 -85 -101 0 -49 16 -87 52 -120 100 -94 372
-107 536 -27 61 30 81 46 118 96 24 33 54 90 66 126 22 66 22 78 28 747 4 524
8 685 18 702 16 29 44 44 101 52 45 6 46 7 46 41 l0 35 -302 3 -303 2 0 -38z"/>
<path d="M1344 2397 c-3 -9 -4 -26 -2 -39 2 -19 11 -24 49 -29 63 -9 88 -25
105 -64 21 -51 21 -1050 0 -1100 -17 -40 -55 -61 -128 -70 -47 -6 -48 -7 -48
-41 l0 -34 360 0 360 0 0 34 0 34 -67 6 c-93 8 -142 26 -167 59 -20 26 -21 44
-24 248 l-3 219 73 0 c389 1 591 89 650 283 26 88 22 197 -12 275 -30 69 -111
143 -188 172 -124 47 -168 51 -569 57 -340 5 -383 4 -389 -10z m653 -97 c40
-5 91 -19 113 -30 51 -26 95 -86 110 -152 16 -65 8 -194 -15 -239 -51 -100
-131 -139 -307 -147 l-118 -5 0 286 c0 264 1 286 18 290 30 8 125 7 199 -3z"/>
</g>
</svg>
