<svg xmlns="http://www.w3.org/2000/svg" width="458" height="425" viewBox="0 0 458 425" class="undefined"><style>.a{fill:none;}.b{stroke:#979797;}</style><g class="a"><g class="b"><path d="M56.40625 384.726563C104.851563 407.617188 210.921875 444.804687 277.25 407.535156 321.46875 382.688802 357.8632809999999 252.27604199999996 386.4335940000001 16.296875 163.10026900000003 84.509026 39.037768700000015 144.173088 14.246093800000011 195.289063 -22.941418699999986 271.963024 29.49609380000001 345.800781 56.40625 384.726563Z" class="undefined"/><path d="M57.34375 383.011719L386.9570309999999 16.3359375" class="undefined"/><path d="M64.046875 373.9375L1.5 200.5" class="undefined"/><path d="M129.046875 303.9375L70.5 124.5" class="undefined"/><path d="M180.046875 249.9375L136.5 76.5" class="undefined"/><path d="M231.046875 189.9375L201.5 41.5" class="undefined"/><path d="M279.5 136.5L265.5 32.5" class="undefined"/><path d="M78.5 360.5L22 183" class="undefined"/><path d="M145.48242200000004 286.394531L90.5 107.5" class="undefined"/><path d="M193.48242200000004 236.39453100000003L152.5 77.5" class="undefined"/><path d="M247.48242200000004 172.394531L215.5 22.5" class="undefined"/><path d="M291.5 123.5L279.5 25.5" class="undefined"/><path d="M108.95703100000003 323.693359L55.5 144.5" class="undefined"/><path d="M164.95703100000003 263.693359L120.5 87.5" class="undefined"/><path d="M215.95703100000003 209.693359L184.5 62.5" class="undefined"/><path d="M266.957031 149.693359L248.5 38.5" class="undefined"/><path d="M316 95.5L311.5 38.5" class="undefined"/><path d="M326 86.5L326 25.5" class="undefined"/><path d="M337 76.5L342.5 10.5" class="undefined"/><path d="M348 61.5L358.5 0.5" class="undefined"/><path d="M93.5 342.5L37.5 157.5" class="undefined"/><path d="M156.95703100000003 274.693359L104.5 101.5" class="undefined"/><path d="M207.95703100000003 220.693359L170.5 69.5" class="undefined"/><path d="M258.957031 160.693359L232.5 30.5" class="undefined"/><path d="M304.957031 108.69335899999999L297.5 32.5" class="undefined"/><path d="M276.5 424.5L63.5 376.5" class="undefined"/><path d="M373.713395 347.421494L111.5 321.5" class="undefined"/><path d="M339.5 282.5L162.5 265.5" class="undefined"/><path d="M378.5 235.5L205.5 219.5" class="undefined"/><path d="M409.5 157.5L256.5 161.5" class="undefined"/><path d="M322.295954 405.24621L76.5 362.5" class="undefined"/><path d="M390.31553600000007 330.949865L124.5 308.5" class="undefined"/><path d="M344.5 269.5L173.5 254.5" class="undefined"/><path d="M392.5 221.5L213.5 209.5" class="undefined"/><path d="M408.5 144.5L264.5 152.5" class="undefined"/><path d="M354.013778 368.659136L102.5 334.5" class="undefined"/><path d="M341.5 294.5L151.5 278.5" class="undefined"/><path d="M350.5 249.5L193.5 233.5" class="undefined"/><path d="M415.5 171.5L248.5 171.5" class="undefined"/><path d="M414.5 124.5L279.5 137.5" class="undefined"/><path d="M438.5 77.5L325.903657 87.6973491" class="undefined"/><path d="M455.5 54.5L332.903657 76.6973491" class="undefined"/><path d="M457.5 35.5L345.903657 60.6973491" class="undefined"/><path d="M433.5 107.5L297.5 116.5" class="undefined"/><path d="M438.5 96.5L306.5 106.5" class="undefined"/><path d="M339.992078 386.211424L90.5 347.5" class="undefined"/><path d="M337.5 308.5L139.5 293.5" class="undefined"/><path d="M348.5 257.5L186.5 239.5" class="undefined"/><path d="M414.5 188L227 188" class="undefined"/><path d="M409.5 134.5L270.5 145.5" class="undefined"/></g></g></svg>
